<?xml version="1.0" standalone="no"?>
<!DOCTYPE svg PUBLIC "-//W3C//DTD SVG 20010904//EN"
 "http://www.w3.org/TR/2001/REC-SVG-20010904/DTD/svg10.dtd">
<svg version="1.0" xmlns="http://www.w3.org/2000/svg"
 width="629.000000pt" height="629.000000pt" viewBox="0 0 629.000000 629.000000"
 preserveAspectRatio="xMidYMid meet">
<metadata>
Created by potrace 1.14, written by Peter Selinger 2001-2017
</metadata>
<g transform="translate(0.000000,629.000000) scale(0.100000,-0.100000)"
fill="#000000" stroke="none">
<path d="M0 3150 l0 -2070 3145 0 3145 0 0 2070 0 2070 -3145 0 -3145 0 0
-2070z m2267 1935 c554 -79 1046 -389 1367 -864 32 -46 55 -85 53 -88 -3 -2
-34 18 -71 46 -187 142 -381 220 -636 257 -277 40 -609 -37 -862 -200 -218
-140 -401 -362 -497 -602 -173 -429 -111 -897 166 -1265 334 -445 909 -626
1443 -457 162 51 328 142 429 234 23 20 44 35 46 32 7 -7 -63 -121 -134 -215
-171 -229 -411 -433 -671 -571 -492 -261 -1116 -294 -1640 -85 -163 65 -230
100 -384 203 -345 231 -606 566 -749 960 -242 670 -104 1412 366 1955 298 346
703 572 1172 654 139 25 450 28 602 6z m3744 -542 c-44 -54 -314 -386 -600
-738 l-519 -639 62 -76 c35 -41 334 -405 665 -809 l603 -734 -233 6 c-129 4
-301 7 -384 7 l-150 0 -475 550 -475 550 -3 -565 -2 -565 -345 0 -345 0 0
1550 0 1550 345 0 345 0 2 -499 3 -498 399 503 399 504 394 0 394 0 -80 -97z"/>
</g>
</svg>
